<?xml version="1.0" encoding="utf-8"?>
<!-- Generator: Adobe Illustrator 15.1.0, SVG Export Plug-In . SVG Version: 6.00 Build 0)  -->
<!DOCTYPE svg PUBLIC "-//W3C//DTD SVG 1.1//EN" "http://www.w3.org/Graphics/SVG/1.1/DTD/svg11.dtd">
<svg version="1.1" id="Layer_1" xmlns="http://www.w3.org/2000/svg" xmlns:xlink="http://www.w3.org/1999/xlink" x="0px" y="0px"
	 width="193.327px" height="50px" viewBox="0 0 193.327 50" enable-background="new 0 0 193.327 50" xml:space="preserve">
<g>
	<path fill="#475C95" d="M61.65,3.636h8.959v2.281h-6.353v3.554h5.168v2.26h-5.168v5.362H61.65V3.636z M73.667,5.357
		c-0.992,0-1.551-0.603-1.551-1.528c0-0.905,0.56-1.53,1.551-1.53c1.012,0,1.572,0.625,1.572,1.53
		C75.238,4.755,74.678,5.357,73.667,5.357L73.667,5.357z M72.395,17.093V7.23l2.541-0.366v10.228H72.395z M83.813,17.093v-6.05
		c0-1.464-0.58-1.96-1.722-1.96c-0.882,0-1.7,0.453-2.196,0.926v7.084h-2.541V7.209l2.541-0.345v1.573
		c0.883-0.97,2.068-1.593,3.273-1.593c2.003,0,3.187,1.292,3.187,3.423v6.826H83.813z M95.343,2.709l2.541-0.344v14.729h-2.541
		v-0.97c-0.667,0.647-1.573,1.292-2.799,1.292c-2.626,0-4.328-2.131-4.328-5.209c0-3.166,2.196-5.362,5.017-5.362
		c0.711,0,1.486,0.129,2.11,0.322V2.709z M93.469,8.867c-1.701,0-2.67,1.4-2.67,3.23c0,1.938,0.97,3.165,2.498,3.165
		c0.84,0,1.486-0.301,2.046-0.817V9.449C94.847,9.083,94.223,8.867,93.469,8.867L93.469,8.867z M107.961,7.167v6.05
		c0,1.465,0.604,1.938,1.68,1.938c0.906,0,1.702-0.409,2.176-0.861V7.167h2.541v9.862l-2.541,0.344v-1.464
		c-0.818,0.884-2.003,1.507-3.273,1.507c-1.938,0-3.121-1.292-3.121-3.424V7.167H107.961z M120.012,17.438
		c-1.292,0-2.864-0.367-3.855-0.927l0.561-1.981c0.99,0.56,2.26,0.927,3.359,0.927c0.992,0,1.638-0.41,1.638-1.099
		c0-0.775-0.841-1.054-2.003-1.335c-1.875-0.431-3.361-1.206-3.361-3.08c0-1.873,1.573-3.1,3.963-3.1
		c1.228,0,2.691,0.322,3.619,0.796l-0.561,1.981c-0.97-0.496-2.24-0.818-3.123-0.818c-0.926,0-1.484,0.345-1.484,0.991
		c0,0.753,0.84,1.012,2.002,1.292c1.895,0.452,3.381,1.185,3.381,3.122C124.145,16.06,122.552,17.438,120.012,17.438L120.012,17.438
		z M135.558,17.416c-2.906,0-5.017-1.981-5.017-5.276c0-3.273,2.218-5.319,5.147-5.319c2.928,0,5.017,2.025,5.017,5.298
		C140.705,15.37,138.467,17.416,135.558,17.416z M135.601,8.867c-1.657,0-2.561,1.335-2.561,3.252c0,1.895,0.946,3.23,2.606,3.23
		c1.636,0,2.538-1.292,2.538-3.209C138.185,10.224,137.237,8.867,135.601,8.867L135.601,8.867z M149.055,17.093v-6.05
		c0-1.464-0.579-1.96-1.722-1.96c-0.883,0-1.701,0.453-2.196,0.926v7.084h-2.542V7.209l2.542-0.345v1.573
		c0.884-0.97,2.067-1.593,3.272-1.593c2.003,0,3.187,1.292,3.187,3.423v6.826H149.055z"/>
</g>
<g>
	<path fill="#475C95" d="M61.65,26.066h14.166v3.609H65.771v5.619h8.172v3.574h-8.172v8.479H61.65V26.066L61.65,26.066z
		 M85.632,45.543c-1.124,1.362-2.485,2.315-4.425,2.315c-2.828,0-4.87-1.94-4.87-4.426c0-2.895,2.111-5.346,9.295-5.583v-0.376
		c0-2.111-0.886-2.996-3.132-2.996c-1.599,0-3.542,0.716-5.21,1.668l-0.817-3.166c1.533-0.953,3.983-1.839,6.572-1.839
		c4.835,0,6.708,2.145,6.605,6.469v5.62c0,1.19,0.204,1.361,1.396,1.429l-0.307,3.03c-2.996,0.342-4.392-0.577-4.971-2.145
		L85.632,45.543L85.632,45.543z M85.632,39.959c-3.915,0.477-5.345,1.259-5.345,2.928c0,1.192,0.92,2.044,2.349,2.044
		c1.26,0,2.281-0.579,2.996-1.361V39.959L85.632,39.959z M100.401,47.858c-5.107,0-8.138-3.166-8.138-8.308
		c0-5.108,3.337-8.41,8.274-8.41c2.146,0,3.984,0.476,5.416,1.328l-0.852,3.234c-1.295-0.818-2.792-1.261-4.258-1.261
		c-2.894,0-4.46,1.975-4.46,5.005c0,3.201,1.805,5.074,4.46,5.074c1.636,0,3.133-0.442,4.359-1.225l0.646,3.268
		C104.487,47.382,102.514,47.858,100.401,47.858z M111.251,40.368c0.171,2.554,1.907,4.289,4.698,4.289
		c1.668,0,3.474-0.545,4.903-1.429l0.511,3.337c-1.498,0.816-3.576,1.293-5.686,1.293c-5.039,0-8.377-3.201-8.377-8.206
		c0-5.106,3.405-8.512,8.104-8.512c4.154,0,6.47,2.52,6.47,6.366c0,0.853-0.138,1.942-0.34,2.623l-10.283,0.136V40.368z
		 M118.095,37.882v-0.272c0-2.111-0.918-3.439-2.996-3.439c-2.214,0-3.54,1.806-3.745,3.747L118.095,37.882z M132.087,47.824
		c-1.021,0-2.485-0.204-3.506-0.544l-3.849,0.577V24.603l4.018-0.543v9.09c1.055-1.021,2.484-2.009,4.393-2.009
		c4.154,0,6.878,3.371,6.878,8.206C140.021,44.352,136.547,47.824,132.087,47.824L132.087,47.824z M131.984,34.512
		c-1.328,0-2.348,0.511-3.233,1.293v7.935c0.749,0.578,1.769,0.885,2.961,0.885c2.691,0,4.223-2.18,4.223-5.107
		C135.935,36.451,134.47,34.512,131.984,34.512z M149.859,47.858c-4.598,0-7.935-3.132-7.935-8.342c0-5.175,3.507-8.41,8.14-8.41
		c4.629,0,7.932,3.201,7.932,8.377C157.996,44.624,154.456,47.858,149.859,47.858L149.859,47.858z M149.927,34.342
		c-2.62,0-4.051,2.111-4.051,5.142c0,2.996,1.497,5.106,4.119,5.106c2.589,0,4.019-2.043,4.019-5.073S152.516,34.342,149.927,34.342
		z M167.88,47.858c-4.597,0-7.933-3.132-7.933-8.342c0-5.175,3.507-8.41,8.137-8.41c4.632,0,7.933,3.201,7.933,8.377
		C176.017,44.624,172.478,47.858,167.88,47.858z M167.948,34.342c-2.621,0-4.053,2.111-4.053,5.142c0,2.996,1.499,5.106,4.121,5.106
		c2.588,0,4.018-2.043,4.018-5.073S170.537,34.342,167.948,34.342z M182.805,39.789v7.559h-4.017V24.603l4.017-0.543v14.573h0.069
		l5.618-6.98h4.801l-6.503,7.456l6.537,8.24h-4.802l-5.651-7.559H182.805L182.805,39.789z"/>
</g>
<path fill="#495B95" d="M47.016,0.237H2.747C1.23,0.236,0.001,1.465,0,2.982c0,0,0,0,0,0.002v44.269
	c0,1.517,1.229,2.746,2.747,2.746l0,0h44.269c1.517,0,2.746-1.229,2.747-2.746V2.984C49.762,1.467,48.533,0.239,47.016,0.237
	C47.017,0.237,47.016,0.237,47.016,0.237z"/>
<path fill="#FFFFFF" d="M40.804,30.729l0.968-7.511h-7.437v-4.794c0-2.174,0.603-3.656,3.721-3.656l3.977-0.001V8.049
	c-0.688-0.092-3.048-0.296-5.795-0.296c-5.733,0-9.659,3.5-9.659,9.928v5.538h-6.484v7.511h6.484V50h7.756V30.729H40.804
	L40.804,30.729z"/>
</svg>
