<?xml version="1.0" encoding="utf-8"?>
<!-- Generator: Adobe Illustrator 15.1.0, SVG Export Plug-In . SVG Version: 6.00 Build 0)  -->
<!DOCTYPE svg PUBLIC "-//W3C//DTD SVG 1.1//EN" "http://www.w3.org/Graphics/SVG/1.1/DTD/svg11.dtd">
<svg version="1.1" id="Layer_1" xmlns="http://www.w3.org/2000/svg" xmlns:xlink="http://www.w3.org/1999/xlink" x="0px" y="0px"
	 width="163.479px" height="50px" viewBox="0 0 163.479 50" enable-background="new 0 0 163.479 50" xml:space="preserve">
<g id="g2403" transform="matrix(1.0986567,0,0,1.0986567,0,-7.6819571)">
	<g id="g2405">
		<path id="path2407" fill="#3A67B0" d="M5.958,29.271H0v-7.338h6.126v-1.861c0-9.025,4.106-12.169,12.2-12.169
			c2.192,0,3.878,0.349,5.17,0.583l-0.616,7.219c-0.842-0.292-1.688-0.466-3.205-0.466c-2.585,0-3.597,1.865-3.597,4.834v1.862
			h7.195v7.337h-7.195v22.998H5.958V29.271z"/>
		<rect id="rect2409" x="28.554" y="8.601" fill="#3A67B0" width="10.121" height="43.667"/>
		<rect id="rect2411" x="47.331" y="9.299" fill="#3A67B0" width="10.12" height="7.686"/>
		<rect id="rect2413" x="47.331" y="21.933" fill="#3A67B0" width="10.12" height="30.333"/>
		<path id="path2415" fill="#3A67B0" d="M87.863,30.61c-1.855-1.164-3.71-1.688-6.128-1.688c-4.385,0-7.757,3.144-7.757,8.385
			c0,4.83,3.935,7.976,8.321,7.976c2.304,0,4.609-0.524,6.296-1.455l0.224,7.802c-2.529,0.873-5.565,1.341-8.264,1.341
			c-9.67,0-17.033-5.824-17.033-15.839c0-10.073,7.363-15.895,17.033-15.895c3.035,0,5.735,0.525,8.04,1.689L87.863,30.61z"/>
		<polygon id="polygon2417" fill="#3A67B0" points="93.036,8.601 103.153,8.601 103.153,34.686 103.265,34.686 111.698,21.933 
			122.773,21.933 112.598,35.848 123.615,52.268 111.36,52.268 103.265,37.246 103.153,37.246 103.153,52.268 93.036,52.268 		"/>
		<path id="path2419" fill="#ED2584" d="M148.292,30.318c-1.124-0.348-2.249-0.348-3.428-0.348c-4.723,0-7.364,3.551-7.364,9.49
			v12.809H127.38V21.933h9.219v5.591h0.114c1.741-3.843,4.27-6.288,8.656-6.288c1.18,0,2.417,0.174,3.429,0.35L148.292,30.318z"/>
	</g>
</g>
</svg>
