<?xml version="1.0" encoding="utf-8"?>
<!-- Generator: Adobe Illustrator 15.1.0, SVG Export Plug-In . SVG Version: 6.00 Build 0)  -->
<!DOCTYPE svg PUBLIC "-//W3C//DTD SVG 1.1//EN" "http://www.w3.org/Graphics/SVG/1.1/DTD/svg11.dtd">
<svg version="1.1" xmlns="http://www.w3.org/2000/svg" xmlns:xlink="http://www.w3.org/1999/xlink" x="0px" y="0px"
	 width="86.262px" height="100px" viewBox="0 0 86.262 100" enable-background="new 0 0 86.262 100" xml:space="preserve">
<g id="Layer_1">
	<path fill="#FFFFFF" stroke="#000000" stroke-miterlimit="10" d="M10.951,37.925c0,0-4.101,10.981,0,15.226
		c4.1,4.248,6.588,5.857,12.299,5.564c5.709-0.293,16.25-1.869,18.446-10.377c2.198-8.509-0.146-34.864,4.979-40.573
		C51.8,2.053,59.997-0.875,67.612,1.322c7.614,2.196,18.301,12.005,17.862,20.644c-0.438,8.638-6.001,14.641-11.857,15.374
		c-5.857,0.731-13.763-2.051-14.203-0.879c-0.44,1.172,2.716,11.708,2.927,15.52c0.146,2.635,0,3.514,0,3.514
		s7.907,0.879,9.518,1.318c1.609,0.439,4.538,2.785,3.66,4.684c-0.878,1.906-2.488,3.662-5.855,3.225
		c-3.369-0.441-6.882-0.881-6.882-0.881l-0.146,1.613c0,0,5.417,0.436,6.733,0.875c1.319,0.443,3.514,2.197,2.637,4.393
		c-0.879,2.197-1.903,3.955-6.59,3.225c-4.686-0.736-4.1-0.586-4.1-0.586s-1.462,4.393-3.367,6.732
		c-1.905,2.344-4.247,4.832-4.247,4.832l0.147,5.127c0,0,5.564-0.146,6.441,2.051c0.88,2.197,1.025,4.391,0.292,5.271
		c-0.729,0.875-1.755,2.037-8.93,2.037c-7.173,0-9.809-1.746-9.957-3.797c-0.146-2.051-0.146-9.225-0.146-9.225l-9.224,0.145v3.371
		c0,0,4.979,0,6.149,1.609c1.171,1.607,2.049,4.99,0.146,6.441c-1.903,1.455-4.392,1.455-9.224,1.455s-8.932-1.014-9.224-4.676
		c-0.293-3.658,0-8.93,0-8.93S7.29,79.947,3.63,72.334c-3.661-7.613-3.074-16.109-2.196-19.623
		C2.312,49.198,3.922,42.023,10.951,37.925z"/>
	<circle fill="#FFFFFF" stroke="#000000" stroke-miterlimit="10" cx="70.374" cy="13.887" r="2.068"/>
	<path fill="none" stroke="#000000" stroke-miterlimit="10" d="M65.348,23.344c0,5.51,6.991,9.967,15.625,9.967"/>
</g>
<g id="Layer_2">
</g>
</svg>
