<?xml version="1.0" encoding="utf-8"?>
<!-- Generator: Adobe Illustrator 15.1.0, SVG Export Plug-In . SVG Version: 6.00 Build 0)  -->
<!DOCTYPE svg PUBLIC "-//W3C//DTD SVG 1.1//EN" "http://www.w3.org/Graphics/SVG/1.1/DTD/svg11.dtd">
<svg version="1.1" id="Layer_1" xmlns="http://www.w3.org/2000/svg" xmlns:xlink="http://www.w3.org/1999/xlink" x="0px" y="0px"
	 width="298.615px" height="100px" viewBox="0 0 298.615 100" enable-background="new 0 0 298.615 100" xml:space="preserve">
<title>react-logo</title>
<desc>Created with Sketch.</desc>
<g id="logo-_x28_1_x29_" transform="translate(12.000000, 17.000000)" sketch:type="MSLayerGroup">
	<circle id="Oval" sketch:type="MSShapeGroup" fill="#4DC8ED" cx="44.051" cy="32.772" r="9.677">
	</circle>
	<path id="Shape" sketch:type="MSShapeGroup" fill="none" stroke="#4DC8ED" stroke-width="5" d="M44.051,13.096
		c12.993,0,25.065,1.863,34.165,4.998c10.966,3.773,17.709,9.497,17.709,14.678c0,5.402-7.146,11.481-18.922,15.382
		c-8.902,2.948-20.618,4.488-32.953,4.488c-12.645,0-24.62-1.448-33.621-4.521C-0.961,44.226-7.822,38.072-7.822,32.772
		c0-5.14,6.437-10.818,17.249-14.587C18.562,15,30.932,13.096,44.051,13.096L44.051,13.096z"/>
	<path id="Shape_1_" sketch:type="MSShapeGroup" fill="none" stroke="#4DC8ED" stroke-width="5" d="M26.922,22.99
		C33.415,11.734,41.058,2.21,48.32-4.11c8.749-7.614,17.074-10.595,21.563-8.006c4.677,2.697,6.374,11.925,3.872,24.074
		c-1.894,9.187-6.413,20.104-12.574,30.79c-6.317,10.954-13.552,20.607-20.713,26.866c-9.063,7.92-17.826,10.788-22.414,8.145
		c-4.452-2.569-6.154-10.983-4.018-22.23C15.839,46.023,20.368,34.356,26.922,22.99L26.922,22.99z"/>
	<path id="Shape_2_" sketch:type="MSShapeGroup" fill="none" stroke="#4DC8ED" stroke-width="5" d="M26.94,42.774
		C20.429,31.53,15.995,20.15,14.146,10.703C11.92-0.678,13.495-9.381,17.979-11.976c4.673-2.706,13.515,0.432,22.791,8.668
		c7.014,6.228,14.215,15.594,20.395,26.269C67.5,33.907,72.249,44.992,74.096,54.328c2.336,11.805,0.445,20.83-4.139,23.481
		C65.51,80.384,57.37,77.66,48.691,70.19C41.359,63.881,33.513,54.131,26.94,42.774L26.94,42.774z"/>
</g>
<path id="React" sketch:type="MSShapeGroup" fill="#4DC8ED" d="M158.206,67.765l-13.195-19.94
	c6.671-0.585,12.682-5.424,12.682-14.221c0-9.016-6.377-14.734-15.319-14.734h-19.647v48.895h6.084V48.339h9.749l12.462,19.425
	H158.206z M141.638,42.987h-12.828V24.294h12.828c5.792,0,9.75,3.813,9.75,9.31C151.389,39.103,147.43,42.987,141.638,42.987
	L141.638,42.987z M180.857,68.647c5.792,0,10.556-1.908,14.074-5.429l-2.638-3.59c-2.786,2.857-6.892,4.471-10.923,4.471
	c-7.625,0-12.315-5.57-12.755-12.243h28.662v-1.392c0-10.628-6.303-18.986-17.006-18.986c-10.116,0-17.446,8.283-17.446,18.545
	C162.824,61.092,170.374,68.647,180.857,68.647L180.857,68.647z M191.853,47.825h-23.238c0.293-5.424,4.032-11.802,11.583-11.802
	C188.262,36.023,191.78,42.547,191.853,47.825L191.853,47.825z M233.783,67.765V43.428c0-8.579-6.229-11.949-13.707-11.949
	c-5.792,0-10.335,1.906-14.148,5.864l2.566,3.812c3.152-3.373,6.598-4.912,10.85-4.912c5.131,0,8.943,2.712,8.943,7.478v6.378
	c-2.861-3.299-6.891-4.839-11.729-4.839c-6.012,0-12.389,3.739-12.389,11.655c0,7.697,6.377,11.732,12.389,11.732
	c4.764,0,8.797-1.688,11.729-4.916v4.033H233.783z M218.536,64.687c-5.13,0-8.723-3.226-8.723-7.699
	c0-4.544,3.593-7.768,8.723-7.768c3.886,0,7.624,1.465,9.75,4.396v6.674C226.16,63.219,222.421,64.687,218.536,64.687
	L218.536,64.687z M260.394,68.647c6.452,0,10.263-2.641,12.974-6.161l-3.664-3.373c-2.347,3.152-5.352,4.618-9.018,4.618
	c-7.549,0-12.241-5.863-12.241-13.707c0-7.845,4.692-13.634,12.241-13.634c3.666,0,6.671,1.392,9.018,4.618l3.664-3.372
	c-2.711-3.519-6.522-6.157-12.974-6.157c-10.557,0-17.668,8.063-17.668,18.545C242.726,60.579,249.837,68.647,260.394,68.647
	L260.394,68.647z M290.008,68.647c3.227,0,5.206-0.955,6.598-2.272l-1.611-4.109c-0.734,0.807-2.2,1.466-3.74,1.466
	c-2.419,0-3.592-1.904-3.592-4.544V37.196h7.183v-4.838h-7.183v-9.676h-5.498v9.676h-5.864v4.838h5.864v23.163
	C282.165,65.638,284.803,68.647,290.008,68.647L290.008,68.647z"/>
</svg>
