<?xml version="1.0" encoding="utf-8"?>
<!-- Generator: Adobe Illustrator 15.1.0, SVG Export Plug-In . SVG Version: 6.00 Build 0)  -->
<!DOCTYPE svg PUBLIC "-//W3C//DTD SVG 1.1//EN" "http://www.w3.org/Graphics/SVG/1.1/DTD/svg11.dtd">
<svg version="1.1" id="Layer_1" xmlns="http://www.w3.org/2000/svg" xmlns:xlink="http://www.w3.org/1999/xlink" x="0px" y="0px"
	 width="485.538px" height="100px" viewBox="0 0 485.538 100" enable-background="new 0 0 485.538 100" xml:space="preserve">
<g>
	<path fill="#9D5D8F" d="M2.267,10.288c2.248-5.44,7.887-9.285,13.796-9.274c44.447-0.016,88.896,0.005,133.343-0.01
		c3.855-0.086,7.716,1.349,10.56,3.957c3.258,2.914,5.113,7.269,5.021,11.635c-0.016,17.038,0.033,34.071-0.021,51.109
		c-0.033,7.699-6.759,14.569-14.453,14.78c-16.209,0.069-32.425,0.005-48.636,0.032c2.178,5.366,4.382,10.727,6.56,16.098
		c-9.657-5.317-19.216-10.823-28.926-16.027c-21.323-0.188-42.663,0.015-63.991-0.107C7.837,82.265,1.138,75.398,1.095,67.716
		c-0.064-16.679,0-33.361-0.033-50.045C1.004,15.165,1.241,12.605,2.267,10.288L2.267,10.288z"/>
	<path fill="#FFFFFF" d="M67.463,11.53c2.462-2.618,7.135-1.769,8.951,1.193c0.984,1.554,1.07,3.629,0.28,5.286
		c-3.424,6.736-4.854,14.243-6.172,21.618c-1.559,9.619-2.854,19.361-2.35,29.125c0.14,2.488-1.065,5.512-3.737,6.092
		c-2.527,0.564-4.829-1.091-6.414-2.876c-7.258-7.807-11.366-17.92-14.329-28.012c-2.995,5.909-6,11.817-8.904,17.775
		c-2.032,4.028-4.178,8.136-7.424,11.334c-1.372,1.36-3.688,2.591-5.458,1.194c-2.661-2.329-3.316-6.038-4.445-9.227
		c-4.286-14.78-6.716-30.013-9.205-45.174c-0.57-2.527,0.489-5.554,3.011-6.565c2.037-0.763,4.645-0.871,6.382,0.63
		c1.21,1.081,1.543,2.752,1.769,4.28c1.748,11.737,3.829,23.436,6.662,34.964c4.855-9.205,9.683-18.425,14.522-27.641
		c0.721-1.349,1.581-2.705,2.903-3.543c1.77-1.134,4.393-1.054,5.871,0.532c1.242,1.302,1.656,3.113,2,4.824
		c1.446,7.618,3.404,15.161,6.248,22.382c1.226-10.882,2.726-21.898,6.7-32.173C65.221,15.477,66.011,13.289,67.463,11.53
		L67.463,11.53z M94.754,17.358c5.226-0.641,10.865,1.097,14.426,5.07c2.903,3.286,4.532,7.548,5.081,11.861
		c0.887,7.377-0.441,15.043-3.989,21.586c-2.006,3.732-4.629,7.306-8.329,9.501c-5.419,3.29-12.688,2.888-17.925-0.587
		c-4.183-2.865-6.533-7.746-7.49-12.613c-1.925-11.01,1.366-23.285,9.705-30.973C88.625,19.137,91.609,17.74,94.754,17.358
		L94.754,17.358z M95.846,28.687c-2.511,0.833-4.097,3.134-5.446,5.274c-3.383,5.445-4.361,12.629-1.64,18.554
		c0.716,1.56,1.866,3.199,3.678,3.527c1.924,0.316,3.715-0.786,5.119-1.984c3.092-2.651,4.629-6.633,5.376-10.543
		c0.838-4.451,0.409-9.382-2.205-13.194C99.679,28.768,97.62,28.063,95.846,28.687L95.846,28.687z M136.685,17.369
		c5.108-0.635,10.651,0.941,14.226,4.753c3.2,3.451,4.93,8.07,5.42,12.709c0.752,7.13-0.559,14.501-3.941,20.841
		c-2.033,3.833-4.715,7.522-8.522,9.753c-5.204,3.118-12.076,2.833-17.231-0.242c-3.484-2.096-5.802-5.678-7.135-9.44
		c-3.656-11.511-0.569-25.055,7.855-33.744C129.884,19.535,133.164,17.809,136.685,17.369L136.685,17.369z M137.793,28.702
		c-2.743,0.979-4.388,3.597-5.812,5.974c-3.087,5.44-3.844,12.447-1.054,18.161c0.752,1.581,2.086,3.172,3.974,3.258
		c2.054,0.076,3.822-1.226,5.247-2.569c3.102-3.059,4.522-7.431,5.017-11.672c0.51-3.974-0.151-8.242-2.463-11.576
		C141.643,28.724,139.562,28.063,137.793,28.702L137.793,28.702z"/>
	<path fill="#010101" d="M192.596,18.879c4.458-0.983,9.145-0.849,13.581,0.183c0.017,3.629,0,7.258,0.011,10.888
		c-3.641-0.876-7.71-1.699-11.243,0.005c-4.221,2.065-6.526,6.822-6.57,11.393c-0.237,4.554,1.28,9.625,5.313,12.183
		c3.704,2.452,8.436,1.931,12.5,0.765c-0.01,3.629,0,7.258-0.01,10.888c-5.376,1.56-11.253,1.365-16.501-0.587
		c-6.301-2.365-11.318-7.807-13.236-14.253c-1.452-4.892-1.639-10.194-0.462-15.166C177.875,27.197,184.611,20.659,192.596,18.879
		L192.596,18.879z M225.349,18.342c5.484-0.613,11.452,0.231,15.882,3.747c4.274,3.317,6.41,8.667,7.151,13.894
		c0.752,5.72,0.585,11.672-1.184,17.2c-1.504,4.693-4.656,9.032-9.193,11.166c-4.613,2.173-9.99,2.317-14.898,1.211
		c-4.548-1.022-8.554-4.039-10.813-8.107c-3.124-5.489-3.694-12.006-3.452-18.2c0.258-5.344,1.608-10.914,5.199-15.033
		C216.86,20.869,221.033,18.831,225.349,18.342L225.349,18.342z M227.038,28.751c-2.354,0.597-3.688,2.919-4.279,5.108
		c-1.167,4.329-0.968,8.882-0.673,13.312c0.286,2.392,0.543,5.037,2.248,6.904c2.264,2.575,6.812,2.226,8.892-0.408
		c1.376-1.688,1.731-3.915,2.049-6.001c0.441-3.731,0.553-7.527-0.016-11.248c-0.397-2.231-1.017-4.586-2.656-6.253
		C231.194,28.702,228.969,28.256,227.038,28.751L227.038,28.751z M442.12,19.068c4.655-1.221,9.592-1.043,14.274-0.044
		c0.106,3.641,0.021,7.286,0.048,10.926c-3.563-0.854-7.499-1.656-10.989-0.118c-4.01,1.828-6.44,6.129-6.752,10.424
		c-0.495,4.818,0.834,10.356,5.079,13.173c3.722,2.559,8.545,2.06,12.662,0.866c-0.048,3.655,0.108,7.317-0.087,10.968
		c-5.73,1.488-11.972,1.289-17.436-1.081c-6.001-2.612-10.65-8.032-12.376-14.334c-1.323-4.839-1.474-10.044-0.253-14.92
		C428.2,27.305,434.54,21.046,442.12,19.068L442.12,19.068z M255.62,19.428c5.183-0.01,10.371-0.01,15.56,0
		c1.876,8.41,3.661,16.846,5.22,25.319c1.485-8.511,3.479-16.92,5.485-25.319c5.317-0.01,10.635-0.005,15.958-0.005
		c2.063,15.221,4.118,30.441,6.166,45.662c-4.07,0.006-8.135,0.006-12.205,0c-1.129-10.425-2.129-20.86-3.322-31.28
		c-2.469,10.441-5.071,20.85-7.587,31.28c-2.773,0.012-5.554,0.006-8.328,0c-2.662-10.44-5.28-20.898-7.964-31.333
		c-1.047,10.447-2.084,20.894-3.145,31.34c-3.887-0.006-7.78,0.005-11.666-0.006C251.727,49.864,253.679,34.649,255.62,19.428
		L255.62,19.428z M311.428,19.423c5.188,0.005,10.377-0.01,15.57,0.005c1.872,8.398,3.641,16.818,5.21,25.281
		c1.507-8.495,3.479-16.899,5.49-25.286c5.297,0,10.597,0,15.892,0c2.061,15.221,4.113,30.441,6.162,45.662
		c-4.063,0.012-8.13-0.005-12.192,0.012c-1.13-10.432-2.183-20.861-3.297-31.292c-2.538,10.426-5.026,20.861-7.564,31.286
		c-2.774-0.006-5.543,0-8.312,0c-2.662-10.452-5.309-20.909-7.963-31.367c-1.064,10.453-2.09,20.91-3.151,31.361
		c-3.893,0.006-7.779,0.006-11.674,0C307.541,49.864,309.487,34.644,311.428,19.423L311.428,19.423z M363.225,19.573
		c8.33-0.188,16.667-0.026,25.002-0.08c0.015,3.243-0.012,6.479,0.015,9.72c-4.204,0.049-8.409,0.005-12.613,0.027
		c-0.006,2.786-0.006,5.57,0,8.356c3.641,0.01,7.28,0,10.919,0.005c0,3.156,0.006,6.307,0,9.458
		c-3.639,0.005-7.28-0.005-10.919,0.005c-0.006,2.786-0.006,5.575,0,8.36c4.221,0.011,8.446,0,12.668,0.006
		c0,3.242,0.006,6.483,0,9.726c-8.333,0.005-16.667,0.005-24.996,0C363.246,49.961,363.393,34.762,363.225,19.573L363.225,19.573z
		 M391.828,19.423c5.216,0.021,10.432-0.043,15.645,0.033c4.916,0.155,10.124,1.382,13.792,4.861
		c3.312,3.081,4.457,8.107,3.171,12.393c-1.016,3.484-3.628,6.312-6.892,7.838c3.264,6.855,6.559,13.689,9.822,20.538
		c-4.339,0.006-8.679,0-13.011,0.006c-3.404-6.989-6.701-14.038-10.146-21.006c-0.087,7-0.013,14.001-0.038,21
		c-4.119,0.006-8.232,0.006-12.344,0C391.824,49.864,391.824,34.644,391.828,19.423L391.828,19.423z M404.115,28.203
		c-0.01,3.629-0.01,7.263,0,10.897c2.229-0.155,4.655-0.242,6.555-1.591c2.181-1.575,1.946-4.945,0.567-6.979
		C409.534,28.444,406.57,28.401,404.115,28.203L404.115,28.203z M459.901,19.433c8.317-0.021,16.635,0,24.952-0.01
		c0.004,3.248,0,6.495,0,9.743c-4.22,0.005-8.441,0-12.663,0.005c-0.004,2.78-0.004,5.56-0.004,8.345
		c3.64,0.011,7.28-0.006,10.92,0.005c0,3.156,0.004,6.317,0,9.473c-3.64,0-7.274,0-10.91,0c-0.014,2.784-0.01,5.57-0.004,8.36
		c4.237,0.01,8.474,0,12.715,0.005c0,3.243,0,6.483-0.004,9.731c-8.329,0-16.663,0-24.992-0.006
		C459.896,49.87,459.911,34.649,459.901,19.433L459.901,19.433z"/>
</g>
</svg>
