<?xml version="1.0" encoding="utf-8"?>
<!-- Generator: Adobe Illustrator 15.1.0, SVG Export Plug-In . SVG Version: 6.00 Build 0)  -->
<!DOCTYPE svg PUBLIC "-//W3C//DTD SVG 1.1//EN" "http://www.w3.org/Graphics/SVG/1.1/DTD/svg11.dtd">
<svg version="1.1" id="Layer_1" xmlns="http://www.w3.org/2000/svg" xmlns:xlink="http://www.w3.org/1999/xlink" x="0px" y="0px"
	 width="341.308px" height="100px" viewBox="0 0 341.308 100" enable-background="new 0 0 341.308 100" xml:space="preserve">
<g>
	<path fill="#9DBD3B" d="M40.115,4.76c0.531,0,1.062,0.152,1.592,0.531c-3.866,1.819-8.112,6.444-9.856,15.694
		c-2.578,0.833-5.08,1.592-7.43,2.275C26.392,16.208,31.32,4.76,40.115,4.76L40.115,4.76z M43.678,8.171
		c0.758,1.896,1.213,4.549,1.213,8.189c0,0.151,0,0.378,0,0.53c-2.957,0.91-6.216,1.896-9.401,2.881
		C37.31,12.872,40.722,9.46,43.678,8.171L43.678,8.171z M52.7,14.541c-1.365,0.455-2.881,0.91-4.549,1.44c0-0.304,0-0.606,0-0.986
		c0-3.033-0.379-5.458-1.062-7.354C49.743,7.944,51.487,10.977,52.7,14.541L52.7,14.541z M74.535,19.848
		c-0.076-0.455-0.455-0.758-0.834-0.758s-7.582-0.53-7.582-0.53s-5.004-5.004-5.611-5.535c-0.53-0.531-1.668-0.379-2.046-0.228
		c-0.076,0-1.138,0.303-2.806,0.834c-1.667-4.852-4.625-9.326-9.856-9.326c-0.151,0-0.303,0-0.455,0
		C43.83,2.334,42.01,1.5,40.418,1.5c-12.206,0-17.969,15.239-19.788,22.972c-4.7,1.441-8.112,2.502-8.491,2.654
		c-2.654,0.834-2.729,0.91-3.033,3.411c-0.228,1.896-7.203,55.27-7.203,55.27l53.829,10.084l29.189-6.293
		C84.846,89.598,74.611,20.378,74.535,19.848L74.535,19.848z"/>
	<path fill="#608D3D" d="M73.701,19.089c-0.379,0-7.582-0.53-7.582-0.53s-5.004-5.004-5.611-5.535
		c-0.227-0.228-0.455-0.303-0.758-0.379l-4.094,83.246l29.189-6.293c0,0-10.235-69.22-10.311-69.675
		C74.459,19.393,74.081,19.165,73.701,19.089L73.701,19.089z"/>
	<path fill="#FFFFFF" d="M45.801,35.238l-3.563,10.69c0,0-3.185-1.668-6.976-1.668c-5.687,0-5.914,3.564-5.914,4.474
		c0,4.852,12.737,6.748,12.737,18.194c0,9.022-5.686,14.785-13.419,14.785c-9.25,0-13.95-5.763-13.95-5.763l2.502-8.186
		c0,0,4.852,4.167,8.946,4.167c2.654,0,3.791-2.122,3.791-3.639c0-6.366-10.462-6.672-10.462-17.134
		c0-8.795,6.293-17.362,19.106-17.362C43.375,33.797,45.801,35.238,45.801,35.238L45.801,35.238z"/>
	<path fill="#1D1D1B" d="M118.812,55.254c-2.881-1.593-4.397-2.882-4.397-4.701c0-2.351,2.047-3.791,5.307-3.791
		c3.791,0,7.127,1.592,7.127,1.592l2.654-8.113c0,0-2.427-1.895-9.629-1.895c-10.008,0-16.983,5.761-16.983,13.798
		c0,4.55,3.26,8.037,7.582,10.54c3.488,1.969,4.701,3.409,4.701,5.458c0,2.197-1.744,3.941-5.004,3.941
		c-4.852,0-9.401-2.502-9.401-2.502l-2.805,8.112c0,0,4.246,2.806,11.297,2.806c10.311,0,17.665-5.08,17.665-14.179
		C127.075,61.319,123.285,57.832,118.812,55.254L118.812,55.254z"/>
	<path fill="#1D1D1B" d="M159.904,38.194c-5.08,0-9.022,2.426-12.131,6.065l-0.152-0.076l4.398-23.048H140.57l-11.144,58.605h11.448
		l3.791-20.016c1.517-7.581,5.383-12.206,9.022-12.206c2.578,0,3.563,1.744,3.563,4.246c0,1.592-0.151,3.488-0.53,5.08
		l-4.322,22.972h11.448l4.473-23.655c0.531-2.501,0.834-5.458,0.834-7.504C169.305,42.061,165.893,38.194,159.904,38.194
		L159.904,38.194z"/>
	<path fill="#1D1D1B" d="M189.547,71.705c-3.942,0-5.534-3.337-5.534-7.505c0-6.596,3.412-17.287,9.629-17.287
		c4.094,0,5.383,3.488,5.383,6.899C199.025,60.94,195.613,71.705,189.547,71.705L189.547,71.705z M195.233,38.194
		c-13.798,0-22.972,12.435-22.972,26.308c0,8.871,5.458,16.073,15.769,16.073c13.572,0,22.67-12.131,22.67-26.308
		C210.776,46.003,205.924,38.194,195.233,38.194L195.233,38.194z"/>
	<path fill="#1D1D1B" d="M229.124,71.932c-2.958,0-4.701-1.668-4.701-1.668l1.895-10.689c1.364-7.126,5.08-11.902,9.021-11.902
		c3.488,0,4.549,3.26,4.549,6.294C239.889,61.319,235.492,71.932,229.124,71.932L229.124,71.932z M240.117,38.194
		c-7.734,0-12.13,6.823-12.13,6.823h-0.152l0.683-6.141h-10.16c-0.531,4.169-1.44,10.463-2.351,15.24l-7.96,42.001h11.448
		l3.184-16.982h0.228c0,0,2.351,1.516,6.748,1.516c13.495,0,22.289-13.799,22.289-27.748
		C251.868,45.094,248.457,38.194,240.117,38.194L240.117,38.194z"/>
	<path fill="#1D1D1B" d="M268.245,21.667c-3.64,0-6.596,2.881-6.596,6.673c0,3.411,2.122,5.761,5.382,5.761h0.152
		c3.563,0,6.672-2.426,6.747-6.672C274.007,24.093,271.732,21.667,268.245,21.667L268.245,21.667z"/>
	<polygon fill="#1D1D1B" points="252.248,79.741 263.695,79.741 271.504,39.105 259.981,39.105 	"/>
	<path fill="#1D1D1B" d="M300.693,38.953h-7.96l0.379-1.896c0.682-3.941,2.957-7.429,6.824-7.429c2.047,0,3.639,0.606,3.639,0.606
		l2.275-8.945c0,0-1.972-0.986-6.218-0.986c-4.094,0-8.112,1.137-11.221,3.791c-3.943,3.335-5.762,8.112-6.671,12.964l-0.305,1.896
		h-5.306l-1.668,8.644h5.306l-6.064,32.069h11.449l6.064-32.069h7.885L300.693,38.953L300.693,38.953z"/>
	<path fill="#1D1D1B" d="M328.29,39.105c0,0-7.201,18.044-10.387,27.901h-0.151c-0.226-3.184-2.806-27.901-2.806-27.901h-12.055
		l6.9,37.3c0.152,0.835,0.076,1.364-0.228,1.896c-1.365,2.578-3.563,5.08-6.218,6.9c-2.123,1.592-4.549,2.577-6.444,3.26
		l3.184,9.705c2.35-0.531,7.126-2.427,11.221-6.218c5.232-4.928,10.085-12.434,15.012-22.745l13.874-30.098H328.29L328.29,39.105z"
		/>
</g>
</svg>
