<?xml version="1.0" encoding="utf-8"?>
<!-- Generator: Adobe Illustrator 15.1.0, SVG Export Plug-In . SVG Version: 6.00 Build 0)  -->
<!DOCTYPE svg PUBLIC "-//W3C//DTD SVG 1.1//EN" "http://www.w3.org/Graphics/SVG/1.1/DTD/svg11.dtd">
<svg version="1.1" id="Layer_1" xmlns="http://www.w3.org/2000/svg" xmlns:xlink="http://www.w3.org/1999/xlink" x="0px" y="0px"
	 width="243.231px" height="100px" viewBox="0 0 243.231 100" enable-background="new 0 0 243.231 100" xml:space="preserve">
<circle fill="#51C8ED" cx="56.193" cy="48.807" r="9.712"/>
<path fill="none" stroke="#51C8ED" stroke-width="4" stroke-miterlimit="10" d="M56.193,29.061c13.04,0,25.153,1.871,34.287,5.016
	c11.005,3.789,17.771,9.532,17.771,14.732c0,5.418-7.171,11.52-18.989,15.434c-8.934,2.961-20.691,4.506-33.069,4.506
	c-12.691,0-24.709-1.451-33.742-4.537C11.019,60.303,4.135,54.123,4.135,48.808c0-5.158,6.459-10.856,17.31-14.64
	C30.612,30.972,43.025,29.061,56.193,29.061z"/>
<path fill="none" stroke="#51C8ED" stroke-width="4" stroke-miterlimit="10" d="M39.002,38.991
	c6.515-11.295,14.187-20.854,21.474-27.196C69.255,4.154,77.61,1.162,82.115,3.76C86.81,6.467,88.512,15.727,86,27.919
	c-1.899,9.218-6.434,20.175-12.617,30.897c-6.34,10.994-13.601,20.682-20.789,26.965C43.5,93.73,34.707,96.605,30.102,93.953
	c-4.467-2.578-6.177-11.02-4.033-22.309C27.879,62.105,32.424,50.397,39.002,38.991z"/>
<path fill="none" stroke="#51C8ED" stroke-width="4" stroke-miterlimit="10" d="M39.019,58.846
	C32.486,47.561,28.036,36.14,26.181,26.661c-2.235-11.422-0.655-20.155,3.846-22.761c4.69-2.715,13.563,0.435,22.872,8.7
	c7.038,6.25,14.266,15.65,20.467,26.363c6.359,10.982,11.125,22.11,12.978,31.475c2.346,11.85,0.447,20.904-4.152,23.568
	c-4.465,2.584-12.632-0.15-21.342-7.646C53.49,80.025,45.616,70.242,39.019,58.846z"/>
<g>
	<path fill="#53C9ED" d="M127.185,50.512v13.64h-6.844V30.028h12.867c3.891,0,6.934,0.887,9.129,2.66
		c2.195,1.773,3.293,4.246,3.293,7.418c0,1.766-0.461,3.281-1.383,4.547c-0.922,1.266-2.273,2.289-4.055,3.07
		c2.016,0.594,3.465,1.586,4.348,2.977c0.882,1.39,1.324,3.109,1.324,5.156v2.508c0,0.953,0.129,1.949,0.387,2.988
		s0.699,1.809,1.324,2.309v0.492h-7.055c-0.625-0.5-1.031-1.336-1.219-2.508s-0.281-2.281-0.281-3.328v-2.414
		c0-1.703-0.465-3.027-1.395-3.973c-0.93-0.945-2.238-1.417-3.926-1.417H127.185z M127.185,45.239h5.906
		c1.922,0,3.355-0.406,4.301-1.219c0.945-0.813,1.418-2.016,1.418-3.609c0-1.563-0.473-2.805-1.418-3.727
		c-0.946-0.922-2.34-1.383-4.184-1.383h-6.023V45.239z"/>
	<path fill="#53C9ED" d="M162.739,64.645c-3.656,0-6.578-1.172-8.766-3.516c-2.188-2.344-3.281-5.32-3.281-8.93v-0.938
		c0-3.765,1.035-6.867,3.105-9.304c2.07-2.438,4.848-3.648,8.332-3.633c3.422,0,6.078,1.031,7.969,3.094
		c1.89,2.063,2.836,4.852,2.836,8.367v3.726h-15.141l-0.047,0.141c0.125,1.666,0.683,3.035,1.676,4.109
		c0.992,1.072,2.34,1.609,4.043,1.609c1.515,0,2.773-0.152,3.773-0.457c1-0.305,2.094-0.785,3.281-1.441l1.852,4.23
		c-1.031,0.848-2.383,1.549-4.055,2.105C166.645,64.367,164.786,64.645,162.739,64.645z M162.13,43.598
		c-1.266,0-2.266,0.484-3,1.453c-0.735,0.969-1.188,2.242-1.359,3.82l0.07,0.117h8.391v-0.609c0-1.453-0.34-2.613-1.02-3.48
		S163.504,43.598,162.13,43.598z"/>
	<path fill="#53C9ED" d="M191.802,64.152c-0.25-0.578-0.465-1.188-0.645-1.828c-0.18-0.641-0.309-1.297-0.387-1.969
		c-0.703,1.234-1.629,2.258-2.777,3.07s-2.52,1.219-4.113,1.219c-2.657,0-4.703-0.684-6.141-2.051
		c-1.438-1.367-2.156-3.23-2.156-5.59c0-2.484,0.957-4.41,2.871-5.777c1.914-1.367,4.707-2.05,8.379-2.05h3.82v-2.016
		c0-1.219-0.32-2.164-0.961-2.836c-0.641-0.672-1.586-1.008-2.836-1.008c-1.11,0-1.965,0.27-2.566,0.809
		c-0.602,0.539-0.902,1.285-0.902,2.238l-6.609-0.023l-0.023-0.141c-0.109-2.141,0.82-3.988,2.789-5.543s4.555-2.332,7.758-2.332
		c3.031,0,5.492,0.77,7.383,2.309c1.89,1.539,2.836,3.73,2.836,6.574v10.476c0,1.188,0.09,2.305,0.27,3.352
		c0.179,1.047,0.465,2.086,0.855,3.117H191.802z M185.544,59.582c1.203,0,2.273-0.297,3.211-0.891s1.57-1.281,1.898-2.063v-3.586
		h-3.82c-1.453,0-2.555,0.363-3.305,1.09s-1.125,1.605-1.125,2.637c0,0.844,0.281,1.523,0.844,2.039S184.575,59.582,185.544,59.582z
		"/>
	<path fill="#53C9ED" d="M213.341,59.371c1.219,0,2.195-0.352,2.93-1.059c0.734-0.707,1.102-1.65,1.102-2.832h6.211l0.07,0.141
		c0.062,2.563-0.902,4.707-2.895,6.434s-4.465,2.59-7.418,2.59c-3.782,0-6.695-1.195-8.742-3.586
		c-2.047-2.391-3.07-5.461-3.07-9.211v-0.703c0-3.734,1.02-6.804,3.059-9.21s4.949-3.609,8.73-3.609
		c3.125,0,5.645,0.891,7.559,2.672c1.914,1.781,2.839,4.125,2.777,7.031l-0.047,0.141h-6.234c0-1.313-0.36-2.402-1.078-3.27
		c-0.719-0.867-1.711-1.301-2.977-1.301c-1.813,0-3.09,0.702-3.832,2.106c-0.742,1.404-1.113,3.214-1.113,5.429v0.702
		c0,2.262,0.371,4.084,1.113,5.465C210.227,58.682,211.513,59.371,213.341,59.371z"/>
	<path fill="#53C9ED" d="M235.677,32.583v6.211h4.266v4.805h-4.266v12.914c0,0.984,0.203,1.688,0.609,2.109
		c0.406,0.422,0.953,0.633,1.641,0.633c0.359,0,0.668-0.02,0.926-0.059s0.559-0.105,0.902-0.199l0.586,4.945
		c-0.688,0.234-1.359,0.41-2.016,0.527s-1.368,0.176-2.133,0.176c-2.359,0-4.176-0.648-5.449-1.945
		c-1.274-1.297-1.91-3.352-1.91-6.164V43.598h-3.703v-4.805h3.703v-6.211H235.677z"/>
</g>
</svg>
