<?xml version="1.0" encoding="utf-8"?>
<!-- Generator: Adobe Illustrator 15.1.0, SVG Export Plug-In . SVG Version: 6.00 Build 0)  -->
<!DOCTYPE svg PUBLIC "-//W3C//DTD SVG 1.1//EN" "http://www.w3.org/Graphics/SVG/1.1/DTD/svg11.dtd">
<svg version="1.1" id="Layer_1" xmlns="http://www.w3.org/2000/svg" xmlns:xlink="http://www.w3.org/1999/xlink" x="0px" y="0px"
	 width="431.689px" height="100px" viewBox="0 0 431.689 100" enable-background="new 0 0 431.689 100" xml:space="preserve">
<path fill="#04759B" d="M250.288,39.936h-16.898v1.793c5.286,0,6.135,1.132,6.135,7.835v12.085c0,6.7-0.848,7.93-6.135,7.93
	c-4.059-0.564-6.797-2.735-10.573-6.894l-4.343-4.718c5.852-1.042,8.968-4.72,8.968-8.875c0-5.19-4.437-9.156-12.744-9.156h-16.615
	v1.793c5.284,0,6.135,1.132,6.135,7.835v12.085c0,6.7-0.85,7.93-6.135,7.93v1.793h18.785v-1.793c-5.285,0-6.135-1.229-6.135-7.93
	v-3.397h1.604l10.48,13.12h27.473c13.498,0,19.352-7.173,19.352-15.766C269.641,47.017,263.789,39.936,250.288,39.936
	L250.288,39.936z M210.733,55.322V42.769h3.869c4.248,0,6.136,2.926,6.136,6.326c0,3.304-1.888,6.228-6.136,6.228H210.733z
	 M250.571,68.448h-0.661c-3.397,0-3.869-0.85-3.869-5.192V42.769h4.53c9.819,0,11.612,7.174,11.612,12.744
	C262.183,61.271,260.388,68.448,250.571,68.448z M145.501,58.818l6.513-19.262c1.889-5.569,1.04-7.173-5.003-7.173v-1.888h17.747
	v1.888c-5.947,0-7.362,1.415-9.722,8.308l-10.764,32.287h-1.226l-9.63-29.549l-9.817,29.549h-1.228l-10.478-32.286
	c-2.268-6.892-3.777-8.308-9.253-8.308v-1.888h20.958v1.888c-5.57,0-7.082,1.321-5.099,7.174l6.324,19.26l9.535-28.322h1.795
	L145.501,58.818L145.501,58.818z M177.597,72.6c-10.384,0-18.881-7.646-18.881-16.995c0-9.25,8.499-16.897,18.881-16.897
	c10.384,0,18.88,7.647,18.88,16.897C196.477,64.954,187.981,72.6,177.597,72.6z M177.597,41.635
	c-8.685,0-11.707,7.835-11.707,13.971c0,6.231,3.022,13.973,11.707,13.973c8.78,0,11.801-7.741,11.801-13.973
	C189.398,49.47,186.377,41.635,177.597,41.635L177.597,41.635z"/>
<path fill="#474443" d="M292.957,69.483v1.889h-21.618v-1.889c6.325,0,7.459-1.604,7.459-11.046V43.335
	c0-9.442-1.134-10.952-7.459-10.952v-1.889h19.541c9.724,0,15.108,5.004,15.108,11.708c0,6.514-5.384,11.61-15.108,11.61h-5.382
	v4.625C285.499,67.882,286.632,69.483,292.957,69.483L292.957,69.483z M290.88,33.893h-5.382V50.32h5.382
	c5.287,0,7.742-3.682,7.742-8.118C298.622,37.67,296.167,33.893,290.88,33.893z M370.839,62.499l-0.47,1.698
	c-0.849,3.115-1.891,4.251-8.592,4.251h-1.321c-4.91,0-5.761-1.136-5.761-7.836V56.27c7.365,0,7.932,0.658,7.932,5.568h1.793V47.771
	h-1.793c0,4.909-0.566,5.568-7.932,5.568V42.769h5.192c6.705,0,7.74,1.134,8.591,4.249l0.475,1.792h1.51l-0.66-8.873h-27.756v1.792
	c5.285,0,6.135,1.133,6.135,7.836v12.084c0,6.132-0.721,7.677-4.889,7.896c-3.962-0.605-6.68-2.763-10.402-6.86l-4.342-4.718
	c5.853-1.042,8.97-4.72,8.97-8.875c0-5.19-4.438-9.156-12.746-9.156h-16.614v1.793c5.286,0,6.135,1.132,6.135,7.835v12.085
	c0,6.7-0.847,7.93-6.135,7.93v1.793h18.787v-1.793c-5.285,0-6.137-1.229-6.137-7.93v-3.397h1.604l10.479,13.12h38.8l0.567-8.871
	L370.839,62.499L370.839,62.499z M320.809,55.322V42.769h3.87c4.248,0,6.137,2.926,6.137,6.326c0,3.304-1.889,6.228-6.137,6.228
	H320.809z M390.003,72.6c-3.776,0-7.08-1.98-8.494-3.21c-0.475,0.473-1.323,1.89-1.511,3.21h-1.794V59.571h1.886
	c0.757,6.231,5.101,9.912,10.67,9.912c3.021,0,5.475-1.698,5.475-4.527c0-2.455-2.168-4.346-6.042-6.138l-5.382-2.549
	c-3.776-1.797-6.606-4.912-6.606-9.064c0-4.532,4.249-8.401,10.103-8.401c3.112,0,5.758,1.134,7.361,2.454
	c0.472-0.377,0.946-1.416,1.229-2.55h1.793V49.85h-1.983c-0.659-4.438-3.114-8.119-8.116-8.119c-2.644,0-5.099,1.509-5.099,3.872
	c0,2.455,1.983,3.775,6.514,5.851l5.192,2.55c4.531,2.17,6.325,5.664,6.325,8.498C401.522,68.448,396.327,72.6,390.003,72.6
	L390.003,72.6z M419.08,72.6c-3.778,0-7.082-1.98-8.497-3.21c-0.47,0.473-1.323,1.89-1.509,3.21h-1.793V59.571h1.887
	c0.754,6.231,5.097,9.912,10.669,9.912c3.02,0,5.475-1.698,5.475-4.527c0-2.455-2.169-4.346-6.044-6.138l-5.38-2.549
	c-3.774-1.797-6.606-4.912-6.606-9.064c0-4.532,4.246-8.401,10.101-8.401c3.114,0,5.757,1.134,7.362,2.454
	c0.473-0.377,0.944-1.416,1.227-2.55h1.794V49.85h-1.98c-0.66-4.438-3.115-8.119-8.118-8.119c-2.643,0-5.098,1.509-5.098,3.872
	c0,2.455,1.98,3.775,6.512,5.851l5.195,2.55c4.53,2.17,6.321,5.664,6.321,8.498C430.597,68.448,425.402,72.6,419.08,72.6
	L419.08,72.6z"/>
<g>
	<path fill="#474443" d="M8.232,50.297c0,16.539,9.61,30.828,23.546,37.602L11.85,33.293C9.461,38.643,8.228,44.438,8.232,50.297z
		 M78.215,48.189c0-5.163-1.855-8.739-3.446-11.523c-2.118-3.441-4.103-6.355-4.103-9.797c0-3.84,2.913-7.416,7.016-7.416
		c0.186,0,0.362,0.024,0.541,0.034C70.791,12.678,60.888,8.52,50.011,8.52c-14.595,0-27.438,7.489-34.907,18.832
		c0.979,0.029,1.904,0.05,2.688,0.05c4.37,0,11.134-0.531,11.134-0.531c2.254-0.133,2.518,3.176,0.269,3.441
		c0,0-2.263,0.267-4.782,0.397l15.213,45.255l9.144-27.421l-6.51-17.834c-2.249-0.131-4.381-0.397-4.381-0.397
		c-2.251-0.132-1.987-3.575,0.264-3.441c0,0,6.9,0.53,11.006,0.53c4.368,0,11.135-0.53,11.135-0.53
		c2.253-0.133,2.518,3.175,0.267,3.441c0,0-2.269,0.267-4.783,0.397l15.099,44.911l4.167-13.924
		C76.841,55.918,78.215,51.764,78.215,48.189z"/>
	<path fill="#474443" d="M50.744,53.951L38.208,90.376c3.832,1.13,7.807,1.702,11.803,1.702c4.725,0.002,9.416-0.8,13.873-2.368
		c-0.116-0.181-0.216-0.375-0.297-0.575L50.744,53.951z M86.671,30.253c0.18,1.33,0.282,2.76,0.282,4.296
		c0,4.239-0.792,9.005-3.177,14.964L71.014,86.411c12.421-7.243,20.775-20.698,20.775-36.114
		C91.8,43.291,90.04,36.396,86.671,30.253L86.671,30.253z"/>
	<path fill="#474443" d="M50.011,1.597C23.157,1.597,1.31,23.444,1.31,50.297C1.31,77.154,23.157,99,50.011,99
		c26.853,0,48.705-21.846,48.705-48.703C98.715,23.444,76.864,1.597,50.011,1.597z M50.011,96.769
		c-25.623,0-46.469-20.85-46.469-46.471S24.388,3.831,50.011,3.831c25.622,0,46.465,20.845,46.465,46.466
		C96.477,75.919,75.633,96.769,50.011,96.769L50.011,96.769z"/>
</g>
</svg>
