<?xml version="1.0" encoding="utf-8"?>
<!-- Generator: Adobe Illustrator 15.1.0, SVG Export Plug-In . SVG Version: 6.00 Build 0)  -->
<!DOCTYPE svg PUBLIC "-//W3C//DTD SVG 1.1//EN" "http://www.w3.org/Graphics/SVG/1.1/DTD/svg11.dtd">
<svg version="1.1" xmlns="http://www.w3.org/2000/svg" xmlns:xlink="http://www.w3.org/1999/xlink" x="0px" y="0px" width="202px"
	 height="66px" viewBox="0 0 202 66" enable-background="new 0 0 202 66" xml:space="preserve">
<g id="Layer_4">
</g>
<g id="Layer_1">
	<path fill="#393D3F" d="M76.707,28.376h-2.215v8.313H70.5V16.783h3.992v8.135h1.736l5.277-8.135h4.881l-6.699,9.27l7.232,10.637
		h-4.867L76.707,28.376z"/>
	<path fill="#393D3F" d="M94.646,36.689h-3.992V16.783h3.992V36.689z"/>
	<path fill="#393D3F" d="M114.199,19.859h-5.633v16.831h-3.992V19.859h-5.605v-3.076h15.231V19.859z"/>
	<path fill="#393D3F" d="M132.26,19.859h-5.633v16.831h-3.992V19.859h-5.605v-3.076h15.23V19.859z"/>
	<path fill="#393D3F" d="M148.545,27.939h-8.244v5.674h9.639v3.077h-13.631V16.783h13.604v3.076h-9.611v5.004h8.244V27.939z"/>
	<path fill="#393D3F" d="M170.298,36.689h-3.978l-8.039-13.604l-0.082,0.014v13.59h-3.992V16.783h3.992l8.039,13.59l0.082-0.014
		V16.783h3.978V36.689z"/>
	<path fill="#393D3F" d="M75.565,41.883l5.072,14.67h0.082l5.113-14.67h5.223v19.906h-3.992v-5.934l0.383-8.791l-0.082-0.014
		l-5.332,14.738h-2.68l-5.305-14.684l-0.082,0.014l0.383,8.736v5.934h-3.992V41.883H75.565z"/>
	<path fill="#393D3F" d="M100.846,61.789h-3.992V41.883h3.992V61.789z"/>
	<path fill="#393D3F" d="M120.399,44.959h-5.633v16.83h-3.992v-16.83h-5.606v-3.076h15.231V44.959z"/>
	<path fill="#393D3F" d="M138.46,44.959h-5.633v16.83h-3.992v-16.83h-5.605v-3.076h15.23V44.959z"/>
	<path fill="#393D3F" d="M158.068,53.627c0,2.441-0.772,4.461-2.317,6.057c-1.545,1.594-3.553,2.393-6.022,2.393
		c-2.452,0-4.443-0.799-5.975-2.393c-1.531-1.596-2.297-3.615-2.297-6.057v-3.582c0-2.434,0.764-4.451,2.29-6.051
		s3.516-2.398,5.968-2.398c2.47,0,4.479,0.799,6.029,2.398s2.324,3.617,2.324,6.051V53.627z M154.076,50.027
		c0-1.553-0.388-2.826-1.162-3.822c-0.774-0.994-1.841-1.492-3.199-1.492s-2.411,0.496-3.158,1.486s-1.121,2.266-1.121,3.828v3.617
		c0,1.578,0.378,2.867,1.135,3.861c0.757,0.996,1.81,1.494,3.158,1.494c1.367,0,2.434-0.498,3.199-1.494
		c0.766-0.994,1.148-2.283,1.148-3.861V50.027z"/>
	<path fill="#393D3F" d="M179.096,61.789h-3.979l-8.039-13.604l-0.082,0.014v13.59h-3.992V41.883h3.992l8.039,13.59l0.082-0.014
		V41.883h3.979V61.789z"/>
	<path fill="#393D3F" d="M195.395,56.594c0-0.766-0.271-1.381-0.813-1.846c-0.543-0.465-1.492-0.902-2.852-1.313
		c-2.369-0.684-4.16-1.496-5.373-2.434c-1.211-0.939-1.818-2.225-1.818-3.855c0-1.633,0.695-2.965,2.086-4
		c1.389-1.033,3.164-1.551,5.324-1.551c2.188,0,3.971,0.58,5.346,1.742c1.377,1.162,2.043,2.596,1.996,4.301l-0.027,0.082h-3.869
		c0-0.922-0.307-1.666-0.922-2.236c-0.615-0.568-1.479-0.854-2.592-0.854c-1.066,0-1.891,0.236-2.475,0.711
		c-0.582,0.473-0.875,1.08-0.875,1.818c0,0.674,0.313,1.229,0.938,1.66c0.623,0.434,1.701,0.891,3.232,1.375
		c2.197,0.609,3.861,1.416,4.99,2.42c1.131,1.002,1.695,2.318,1.695,3.951c0,1.703-0.672,3.049-2.016,4.033
		c-1.346,0.984-3.119,1.477-5.326,1.477c-2.168,0-4.061-0.559-5.674-1.676c-1.613-1.115-2.396-2.682-2.352-4.695l0.027-0.082h3.883
		c0,1.184,0.363,2.053,1.088,2.604c0.725,0.553,1.734,0.828,3.027,0.828c1.086,0,1.914-0.225,2.488-0.67
		C195.107,57.938,195.395,57.34,195.395,56.594z"/>
</g>
<g id="Layer_3">
	<g>
		<path fill="#393D3F" d="M36.028,6.31c0,0-2.06-1.994,2.392-2.924s10.366-1.329,13.955,0.333c3.588,1.661,11.23,6.18,11.895,12.758
			s-0.066,7.442,0,8.904s1.16,6.513,0.281,10.167c-0.879,3.656-2.54,6.714-2.341,8.972c0.199,2.26,2.904,5.383,2.681,6.313
			c-0.223,0.932-1.618,6.646-2.88,8.905c-1.263,2.259-4.984,3.92-5.915,2.657c-0.93-1.262-0.93-2.459,0.665-3.189
			s3.522-1.859,2.857-4.85c-0.665-2.991-2.725-4.319-3.323-4.652c-0.598-0.332-1.461-0.267-1.528,0.332
			c-0.066,0.598-0.73,1.197-2.392,2.06c-1.661,0.865-4.784,3.056-5.714,3.921c-0.931,0.864-4.187,3.789-5.383,1.86
			c-1.196-1.926,0.797-2.79,1.595-2.99c0.797-0.199,4.518-2.192,5.25-3.588s-0.465-4.386-0.664-4.852
			c-0.2-0.464-0.864-0.73-0.864-0.73s-3.721-0.265-5.714-0.199c-1.994,0.067-6.645,0.332-6.379,1.527
			c0.266,1.196,1.926,4.852,2.259,5.649c0.333,0.797,0.665,3.257-0.664,4.452c-1.329,1.196-4.651,0.931-5.183,0.531
			c-0.532-0.398-1.13-0.996,0.664-1.861c1.794-0.862,1.861-1.261,1.462-2.059c-0.399-0.797-2.393-5.582-3.19-5.848
			c-0.797-0.267-2.458-0.399-3.189,0.266c-0.731,0.664-6.247,5.315-8.572,6.911c-2.326,1.595-7.177,4.452-7.775,4.784
			c-0.598,0.331-4.917,1.661-5.316,0.199c-0.398-1.463,0.864-2.393,2.458-2.858c1.595-0.464,5.715-4.518,6.247-5.116
			c0.532-0.598,5.05-4.253,5.25-5.051c0.199-0.797-1.528-4.318-1.994-5.646c-0.465-1.33-1.927-5.052-2.592-5.119
			c-0.665-0.065-4.253,0.6-4.718-0.93c-0.465-1.528-0.797-3.365-1.129-4.474s0.266-3.168,0.199-4.231
			C8.65,25.58,7.72,20.995,7.388,20.131c-0.333-0.863-0.333-0.863-0.333-0.863s2.99,2.126,3.588,2.458
			c0.598,0.333,0.997,1.595,1.661,1.86c0.665,0.266,2.591-0.531,3.92-0.199c1.33,0.332,3.655-0.465,5.25-0.997
			c1.595-0.532,2.591-1.662,2.724-0.797c0.133,0.864-0.996,4.319-0.465,4.917c0.532,0.598,4.054,0.798,4.984,0.731
			c0.93-0.067,7.31-3.256,9.303-3.788c1.994-0.532,6.711-1.13,9.702-1.33c2.991-0.199,7.841,0.532,9.17,0.864
			c1.329,0.332,2.392,0.332,2.392,0.332s-0.132-8.506-2.458-11.363c-2.326-2.857-5.316-6.247-11.562-6.18
			c-6.247,0.066-7.642,0.598-7.642,0.598S36.346,6.756,36.028,6.31z"/>
		<path fill="#C9D3D5" stroke="#393D3F" stroke-width="0.5" stroke-miterlimit="10" d="M8.384,56.082c0,0,3.788,3.058,2.857,3.721
			c-0.93,0.665-4.651,2.459-5.714,1.33c-1.063-1.131-1.521-2.988,0-3.389S8.384,56.082,8.384,56.082z"/>
		<path fill="#C9D3D5" stroke="#393D3F" stroke-width="0.5" stroke-miterlimit="10" d="M32.771,54.421l4.652,0.398
			c0,0,0.066,1.794-0.864,2.526c-0.93,0.73-5.516,1.661-6.446,0.331c-0.93-1.328,0.532-1.928,0.997-2.26
			C31.575,55.086,32.312,54.382,32.771,54.421z"/>
		<path fill="#C9D3D5" stroke="#393D3F" stroke-width="0.5" stroke-miterlimit="10" d="M43.603,54.089c0,0,0.133,1.593,0.532,1.993
			c0.398,0.398,1.528,1.396,1.528,1.396s-0.133,0.215-1.528,0.872c-1.396,0.656-3.19,0.591-3.788-1.004
			C39.749,55.75,41.281,54.896,43.603,54.089z"/>
		<path fill="#C9D3D5" stroke="#393D3F" stroke-width="0.5" stroke-miterlimit="10" d="M57.757,58.35c0,0,1.129,0.989,1.661,1.321
			c0.532,0.331,3.124,0.398,2.658,0.864c-0.465,0.464-2.99,3.322-4.784,2.791c-1.794-0.533-3.323-2.924-1.728-3.854
			C57.159,58.541,57.757,58.35,57.757,58.35z"/>
	</g>
</g>
</svg>
