<?xml version="1.0" encoding="utf-8"?>
<!-- Generator: Adobe Illustrator 15.1.0, SVG Export Plug-In . SVG Version: 6.00 Build 0)  -->
<!DOCTYPE svg PUBLIC "-//W3C//DTD SVG 1.1//EN" "http://www.w3.org/Graphics/SVG/1.1/DTD/svg11.dtd">
<svg version="1.1" xmlns="http://www.w3.org/2000/svg" xmlns:xlink="http://www.w3.org/1999/xlink" x="0px" y="0px"
	 width="86.262px" height="100px" viewBox="0 0 86.262 100" enable-background="new 0 0 86.262 100" xml:space="preserve">
<g id="Layer_1">
	<path fill="#FFFFFF" stroke="#000000" stroke-miterlimit="10" d="M10.97,37.934c0,0-4.096,10.973,0,15.217
		c4.098,4.244,6.584,5.854,12.292,5.561c5.706-0.293,16.242-1.869,18.438-10.372c2.194-8.504-0.147-34.842,4.973-40.548
		C51.795,2.083,59.99-0.842,67.6,1.354c7.607,2.194,18.289,11.998,17.85,20.631c-0.439,8.633-6,14.631-11.854,15.364
		c-5.852,0.73-13.754-2.048-14.193-0.879c-0.438,1.171,2.717,11.701,2.928,15.511c0.146,2.635,0,3.512,0,3.512
		s7.902,0.877,9.512,1.316s4.535,2.781,3.656,4.684c-0.877,1.902-2.486,3.656-5.852,3.219c-3.365-0.439-6.879-0.879-6.879-0.879
		l-0.145,1.611c0,0,5.414,0.438,6.73,0.877s3.512,2.195,2.635,4.391c-0.879,2.193-1.902,3.947-6.586,3.219
		c-4.682-0.732-4.096-0.586-4.096-0.586s-1.465,4.389-3.365,6.73c-1.904,2.342-4.244,4.828-4.244,4.828l0.146,5.123
		c0,0,5.559-0.146,6.438,2.049c0.877,2.195,1.025,4.391,0.293,5.268s-1.756,2.035-8.926,2.035s-9.804-1.742-9.949-3.791
		c-0.147-2.049-0.147-9.217-0.147-9.217l-9.218,0.143v3.367c0,0,4.976,0,6.145,1.607c1.171,1.611,2.049,4.988,0.147,6.441
		c-1.902,1.449-4.391,1.449-9.219,1.449c-4.829,0-8.926-1.01-9.219-4.668c-0.292-3.66,0-8.926,0-8.926S7.313,79.93,3.655,72.318
		c-3.659-7.607-3.074-16.094-2.195-19.607C2.338,49.199,3.947,42.03,10.97,37.934z"/>
	<circle fill="#FFFFFF" stroke="#000000" stroke-miterlimit="10" cx="70.357" cy="13.911" r="2.068"/>
	<path fill="none" stroke="#000000" stroke-miterlimit="10" d="M67.734,28.221c-0.031,0.75,6.941,1.63,15.584,1.973"/>
</g>
<g id="Layer_2">
</g>
</svg>
