<?xml version="1.0" encoding="utf-8"?>
<!-- Generator: Adobe Illustrator 15.1.0, SVG Export Plug-In . SVG Version: 6.00 Build 0)  -->
<!DOCTYPE svg PUBLIC "-//W3C//DTD SVG 1.1//EN" "http://www.w3.org/Graphics/SVG/1.1/DTD/svg11.dtd">
<svg version="1.1" xmlns="http://www.w3.org/2000/svg" xmlns:xlink="http://www.w3.org/1999/xlink" x="0px" y="0px" width="300px"
	 height="200px" viewBox="0 0 300 200" enable-background="new 0 0 300 200" xml:space="preserve">
<g id="Layer_1">
</g>
<g id="Layer_3">
	<g>
		<path fill="#FFFFFF" d="M69.767,57.788v12.375h-6.844V36.038h13.594c3.922,0,7.008,1,9.258,3c2.25,2,3.375,4.633,3.375,7.898
			c0,3.266-1.125,5.891-3.375,7.875c-2.25,1.984-5.336,2.977-9.258,2.977H69.767z M69.767,52.514h6.75
			c1.906,0,3.352-0.519,4.336-1.559c0.984-1.039,1.477-2.363,1.477-3.973c0-1.641-0.489-2.996-1.465-4.066
			c-0.977-1.07-2.426-1.605-4.348-1.605h-6.75V52.514z"/>
		<path fill="#FFFFFF" d="M14.361,93.638l8.695,25.148h0.141l8.766-25.148h8.953v34.125h-6.844v-10.172l0.656-15.07l-0.141-0.023
			l-9.141,25.266h-4.594l-9.094-25.172l-0.141,0.023l0.656,14.977v10.172H5.431V93.638H14.361z"/>
		<path fill="#FFFFFF" d="M65.619,120.403H53.642l-2.32,7.359h-6.914L56.15,93.638h7.008l11.695,34.125h-6.914L65.619,120.403z
			 M55.33,115.036h8.602l-4.219-13.406h-0.141L55.33,115.036z"/>
		<g>
			<path opacity="0.7" fill="#FFFFFF" d="M141.298,40.889c-2.329,0-4.133,0.85-5.414,2.548c-1.281,1.698-1.922,3.886-1.922,6.563
				V56.2c0,2.708,0.648,4.916,1.945,6.622c1.297,1.707,3.102,2.56,5.414,2.56c2.344,0,4.172-0.853,5.484-2.56
				s1.969-3.914,1.969-6.622V50c0-2.661-0.665-4.845-1.992-6.551C145.455,41.742,143.626,40.889,141.298,40.889z"/>
			<path opacity="0.7" fill="#FFFFFF" d="M199.986,40.889c-2.329,0-4.134,0.85-5.414,2.548c-1.281,1.698-1.922,3.886-1.922,6.563
				V56.2c0,2.708,0.647,4.916,1.945,6.622c1.297,1.707,3.102,2.56,5.414,2.56c2.344,0,4.172-0.853,5.484-2.56
				s1.969-3.914,1.969-6.622V50c0-2.661-0.665-4.845-1.992-6.551C204.143,41.742,202.314,40.889,199.986,40.889z"/>
			<path opacity="0.7" fill="#FFFFFF" d="M90.077,0v93.16c0.161-0.003,0.315-0.015,0.479-0.015c3.75,0,6.805,0.996,9.164,2.988
				c2.359,1.992,3.5,4.449,3.422,7.371l-0.047,0.141h-6.633c0-1.578-0.527-2.855-1.582-3.832s-2.535-1.465-4.441-1.465
				c-0.128,0-0.238,0.018-0.362,0.021v8.924c0.544,0.195,1.132,0.394,1.768,0.594c3.765,1.047,6.617,2.43,8.555,4.148
				c1.937,1.719,2.906,3.977,2.906,6.773c0,2.922-1.152,5.227-3.457,6.914c-2.305,1.688-5.348,2.531-9.129,2.531
				c-0.218,0-0.428-0.015-0.643-0.021V200H300V0H90.077z M101.033,55.983v14.18h-6.844V36.038h6.844v14.672h13.922V36.038h6.82
				v34.125h-6.82v-14.18H101.033z M128.291,127.763l-9.164-14.25h-3.797v14.25h-6.844V93.638h6.844v13.945h2.977l9.047-13.945h8.367
				l-11.484,15.891l12.398,18.234H128.291z M146.759,127.763h-6.844V93.638h6.844V127.763z M141.322,70.655
				c-4.204,0-7.617-1.367-10.242-4.102c-2.625-2.734-3.938-6.195-3.938-10.383V50.03c0-4.172,1.309-7.629,3.926-10.371
				c2.617-2.742,6.027-4.113,10.23-4.113c4.234,0,7.679,1.371,10.336,4.113c2.656,2.742,3.984,6.199,3.984,10.371v6.141
				c0,4.188-1.324,7.649-3.973,10.383C148.998,69.288,145.556,70.655,141.322,70.655z M181.166,127.763h-6.82l-13.781-23.32
				l-0.141,0.023v23.297h-6.844V93.638h6.844l13.781,23.297l0.141-0.023V93.638h6.82V127.763z M183.814,41.311h-9.656v28.852h-6.844
				V41.311h-9.609v-5.273h26.109V41.311z M213.768,123.099c-1.017,1.344-2.599,2.539-4.746,3.586
				c-2.148,1.047-4.863,1.57-8.145,1.57c-4.172,0-7.579-1.297-10.219-3.891c-2.641-2.594-3.961-5.961-3.961-10.102v-7.125
				c0-4.125,1.269-7.488,3.809-10.09c2.539-2.602,5.809-3.902,9.809-3.902c4.156,0,7.339,1.012,9.551,3.035
				c2.211,2.023,3.34,4.684,3.387,7.98l-0.047,0.141h-6.445c-0.126-1.813-0.703-3.246-1.734-4.301s-2.54-1.582-4.523-1.582
				c-2.095,0-3.782,0.808-5.063,2.424c-1.281,1.615-1.922,3.695-1.922,6.239v7.166c0,2.591,0.664,4.694,1.992,6.311
				c1.327,1.615,3.117,2.423,5.367,2.423c1.594,0,2.874-0.163,3.844-0.49c0.969-0.327,1.702-0.732,2.203-1.216v-6.31h-6.047v-4.734
				h12.891V123.099z M214.307,56.17c0,4.188-1.324,7.649-3.973,10.383c-2.648,2.734-6.091,4.102-10.324,4.102
				c-4.204,0-7.617-1.367-10.242-4.102c-2.625-2.734-3.938-6.195-3.938-10.383V50.03c0-4.172,1.309-7.629,3.926-10.371
				c2.616-2.742,6.026-4.113,10.23-4.113c4.233,0,7.679,1.371,10.336,4.113c2.656,2.742,3.984,6.199,3.984,10.371V56.17z"/>
			<path opacity="0.7" fill="#FFFFFF" d="M94.986,121.927c0.984-0.766,1.477-1.789,1.477-3.07c0-1.313-0.465-2.367-1.395-3.164
				c-0.93-0.797-2.559-1.547-4.887-2.25c-0.036-0.011-0.068-0.021-0.104-0.031v9.628c0.217,0.01,0.416,0.036,0.643,0.036
				C92.58,123.075,94.001,122.692,94.986,121.927z"/>
		</g>
	</g>
</g>
<g id="Layer_4">
	<g>
		<path fill="#FFFAFC" d="M89.851,123.041c-1.916-0.084-3.456-0.531-4.577-1.384c-1.242-0.945-1.863-2.434-1.863-4.465h-6.656
			l-0.047,0.141c-0.078,3.453,1.266,6.137,4.031,8.051c2.611,1.807,5.652,2.75,9.112,2.851V123.041z"/>
		<path fill="#FFFAFC" d="M80.715,109.271c2.065,1.599,5.112,2.981,9.136,4.149v-6.116c-1.718-0.615-2.988-1.206-3.804-1.771
			c-1.07-0.742-1.605-1.691-1.605-2.848c0-1.266,0.5-2.305,1.5-3.117c0.936-0.76,2.249-1.15,3.909-1.199v-5.209
			c-3.497,0.07-6.395,0.946-8.679,2.646c-2.383,1.773-3.574,4.059-3.574,6.855S78.637,107.661,80.715,109.271z"/>
	</g>
</g>
</svg>
