<?xml version="1.0" encoding="utf-8"?>
<!-- Generator: Adobe Illustrator 15.1.0, SVG Export Plug-In . SVG Version: 6.00 Build 0)  -->
<!DOCTYPE svg PUBLIC "-//W3C//DTD SVG 1.1//EN" "http://www.w3.org/Graphics/SVG/1.1/DTD/svg11.dtd">
<svg version="1.1" xmlns="http://www.w3.org/2000/svg" xmlns:xlink="http://www.w3.org/1999/xlink" x="0px" y="0px"
	 width="86.262px" height="100px" viewBox="0 0 86.262 100" enable-background="new 0 0 86.262 100" xml:space="preserve">
<g id="Layer_1">
	<path fill="#FFFFFF" stroke="#000000" stroke-miterlimit="10" d="M11.155,37.953c0,0-4.091,10.956,0,15.194
		c4.091,4.236,6.574,5.842,12.273,5.551c5.697-0.293,16.215-1.867,18.406-10.355c2.191-8.49-0.146-34.788,4.967-40.485
		c5.113-5.699,13.296-8.621,20.892-6.428c7.598,2.19,18.264,11.979,17.826,20.599c-0.439,8.619-5.994,14.609-11.836,15.34
		c-5.842,0.729-13.732-2.046-14.172-0.878c-0.438,1.169,2.711,11.682,2.922,15.488c0.146,2.629,0,3.506,0,3.506
		s7.891,0.875,9.496,1.313c1.605,0.439,4.527,2.779,3.652,4.678c-0.877,1.898-2.482,3.65-5.844,3.213
		c-3.359-0.438-6.867-0.877-6.867-0.877l-0.145,1.609c0,0,5.406,0.436,6.721,0.873c1.314,0.439,3.508,2.193,2.631,4.387
		c-0.877,2.189-1.9,3.941-6.576,3.211c-4.674-0.73-4.088-0.582-4.088-0.582s-1.463,4.381-3.361,6.721
		c-1.898,2.336-4.236,4.82-4.236,4.82l0.145,5.113c0,0,5.551-0.148,6.43,2.047c0.875,2.189,1.023,4.381,0.291,5.258
		c-0.73,0.877-1.754,2.033-8.912,2.033c-7.159,0-9.788-1.74-9.935-3.785c-0.145-2.047-0.145-9.203-0.145-9.203l-9.204,0.145v3.357
		c0,0,4.965,0,6.135,1.607c1.168,1.607,2.046,4.98,0.147,6.43c-1.901,1.449-4.383,1.449-9.204,1.449
		c-4.821,0-8.912-1.01-9.204-4.662s0-8.912,0-8.912S7.503,79.885,3.851,72.287c-3.652-7.6-3.067-16.072-2.191-19.58
		C2.536,49.201,4.143,42.042,11.155,37.953z"/>
	<circle fill="#FFFFFF" stroke="#000000" stroke-miterlimit="10" cx="70.45" cy="13.967" r="2.063"/>
	<path fill="none" stroke="#000000" stroke-miterlimit="10" d="M66.615,31.365c0.598-3.782,8.551-5.662,17.777-4.202"/>
</g>
<g id="Layer_2">
</g>
</svg>
