<?xml version="1.0" encoding="utf-8"?>
<!-- Generator: Adobe Illustrator 15.1.0, SVG Export Plug-In . SVG Version: 6.00 Build 0)  -->
<!DOCTYPE svg PUBLIC "-//W3C//DTD SVG 1.1//EN" "http://www.w3.org/Graphics/SVG/1.1/DTD/svg11.dtd">
<svg version="1.1" id="Layer_1" xmlns="http://www.w3.org/2000/svg" xmlns:xlink="http://www.w3.org/1999/xlink" x="0px" y="0px"
	 width="50px" height="50px" viewBox="0 0 50 50" enable-background="new 0 0 50 50" xml:space="preserve">
<g>
	<g id="Up">
		<g>
			<path fill="#121212" d="M34.816,27.441l-8.174-8.917c-0.422-0.46-1.019-0.723-1.644-0.723s-1.22,0.262-1.645,0.723l-8.175,8.917
				l0.006,0.006c-0.364,0.396-0.592,0.92-0.592,1.502c0,1.23,1,2.23,2.23,2.23c0.651,0,1.231-0.283,1.638-0.729l0.005,0.006
				L25,23.331l6.529,7.126l0.008-0.006c0.406,0.445,0.986,0.729,1.639,0.729c1.229,0,2.23-1,2.23-2.229
				c0-0.582-0.229-1.104-0.594-1.502L34.816,27.441z M25,1.452C11.867,1.452,1.219,12.1,1.219,25.234
				c0,13.134,10.648,23.78,23.781,23.78c13.134,0,23.781-10.646,23.781-23.78C48.781,12.1,38.134,1.452,25,1.452z M25,44.555
				c-10.654,0-19.322-8.668-19.322-19.321C5.678,14.58,14.346,5.911,25,5.911c10.652,0,19.32,8.668,19.32,19.323
				C44.32,35.887,35.652,44.555,25,44.555z"/>
		</g>
	</g>
</g>
</svg>
