<?xml version="1.0" encoding="utf-8"?>
<!-- Generator: Adobe Illustrator 15.1.0, SVG Export Plug-In . SVG Version: 6.00 Build 0)  -->
<!DOCTYPE svg PUBLIC "-//W3C//DTD SVG 1.1//EN" "http://www.w3.org/Graphics/SVG/1.1/DTD/svg11.dtd">
<svg version="1.1" id="Layer_1" xmlns="http://www.w3.org/2000/svg" xmlns:xlink="http://www.w3.org/1999/xlink" x="0px" y="0px"
	 width="50px" height="50px" viewBox="0 0 50 50" enable-background="new 0 0 50 50" xml:space="preserve">
<g>
	<g id="Up">
		<g>
			<path fill="#121212" stroke="#FFFFFF" stroke-width="0.5" stroke-miterlimit="10" d="M34.816,27.441l-8.174-8.917
				c-0.422-0.46-1.018-0.723-1.643-0.723c-0.625,0-1.22,0.262-1.645,0.723l-8.175,8.917l0.006,0.006
				c-0.364,0.396-0.592,0.92-0.592,1.502c0,1.23,1,2.23,2.23,2.23c0.651,0,1.231-0.283,1.638-0.729l0.005,0.006L25,23.331
				l6.53,7.126l0.007-0.006c0.407,0.445,0.987,0.729,1.639,0.729c1.229,0,2.23-1,2.23-2.23c0-0.582-0.229-1.105-0.593-1.502
				L34.816,27.441z M25,1.452c-13.133,0-23.781,10.648-23.781,23.782S11.867,49.014,25,49.014c13.134,0,23.781-10.646,23.781-23.78
				S38.134,1.452,25,1.452z M25,44.555c-10.654,0-19.322-8.668-19.322-19.321C5.678,14.58,14.346,5.911,25,5.911
				c10.653,0,19.321,8.668,19.321,19.323C44.321,35.887,35.653,44.555,25,44.555z"/>
		</g>
	</g>
</g>
</svg>
